<svg xmlns="http://www.w3.org/2000/svg" viewBox="0 0 100 100" fill="none">
  <!-- Rocket body -->
  <path d="M50 10 Q62 10 68 26 L68 62 Q68 68 50 72 Q32 68 32 62 L32 26 Q38 10 50 10 Z" fill="white" stroke="#2A262F" stroke-width="2.5" stroke-linejoin="round"/>
  <!-- Rocket nose tip -->
  <path d="M50 10 Q58 10 62 18 Q56 14 50 14 Q44 14 38 18 Q42 10 50 10 Z" fill="#B0A8C4" stroke="#2A262F" stroke-width="0"/>
  <!-- Window -->
  <circle cx="50" cy="36" r="9" fill="#B0A8C4" stroke="#2A262F" stroke-width="2"/>
  <!-- Left fin -->
  <path d="M32 54 L20 68 L32 64 Z" fill="#B0A8C4" stroke="#2A262F" stroke-width="2" stroke-linejoin="round"/>
  <!-- Right fin -->
  <path d="M68 54 L80 68 L68 64 Z" fill="#B0A8C4" stroke="#2A262F" stroke-width="2" stroke-linejoin="round"/>
  <!-- Flame outer -->
  <path d="M40 72 Q36 82 50 90 Q64 82 60 72 Q55 78 50 76 Q45 78 40 72 Z" fill="#B0A8C4" stroke="#2A262F" stroke-width="2" stroke-linejoin="round"/>
  <!-- Flame inner -->
  <path d="M44 72 Q42 80 50 84 Q58 80 56 72 Q52 76 50 74 Q48 76 44 72 Z" fill="white" stroke="#2A262F" stroke-width="1.5" stroke-linejoin="round"/>
</svg>
