<svg xmlns="http://www.w3.org/2000/svg" viewBox="0 0 100 100" fill="none">
  <!-- Left page -->
  <path d="M16 24 Q16 20 50 20 L50 78 Q16 78 16 74 Z" fill="white" stroke="#2A262F" stroke-width="2.5" stroke-linejoin="round"/>
  <!-- Right page -->
  <path d="M50 20 Q84 20 84 24 L84 74 Q84 78 50 78 Z" fill="#C8D4C4" stroke="#2A262F" stroke-width="2.5" stroke-linejoin="round"/>
  <!-- Spine -->
  <line x1="50" y1="20" x2="50" y2="78" stroke="#2A262F" stroke-width="2.5" stroke-linecap="round"/>
  <!-- Lines on left page -->
  <line x1="24" y1="34" x2="44" y2="34" stroke="#2A262F" stroke-width="1.5" stroke-linecap="round"/>
  <line x1="24" y1="42" x2="44" y2="42" stroke="#2A262F" stroke-width="1.5" stroke-linecap="round"/>
  <line x1="24" y1="50" x2="44" y2="50" stroke="#2A262F" stroke-width="1.5" stroke-linecap="round"/>
  <line x1="24" y1="58" x2="44" y2="58" stroke="#2A262F" stroke-width="1.5" stroke-linecap="round"/>
  <line x1="24" y1="66" x2="38" y2="66" stroke="#2A262F" stroke-width="1.5" stroke-linecap="round"/>
  <!-- Lines on right page -->
  <line x1="56" y1="34" x2="76" y2="34" stroke="#2A262F" stroke-width="1.5" stroke-linecap="round"/>
  <line x1="56" y1="42" x2="76" y2="42" stroke="#2A262F" stroke-width="1.5" stroke-linecap="round"/>
  <line x1="56" y1="50" x2="76" y2="50" stroke="#2A262F" stroke-width="1.5" stroke-linecap="round"/>
  <line x1="56" y1="58" x2="76" y2="58" stroke="#2A262F" stroke-width="1.5" stroke-linecap="round"/>
</svg>
