<svg xmlns="http://www.w3.org/2000/svg" xmlns:xlink="http://www.w3.org/1999/xlink" width="500" zoomAndPan="magnify" viewBox="0 0 375 374.999991" height="500" preserveAspectRatio="xMidYMid meet" version="1.0"><path stroke-linecap="butt" transform="matrix(0.75, 0, 0, 0.75, 40.1447, 12.427968)" fill="none" stroke-linejoin="miter" d="M 152.129993 350.002316 L 56.15082 243.658559 L 56.15082 350.002316 L 25.70811 350.002316 L 25.70811 116.991884 L 56.15082 116.991884 L 56.15082 224.965849 L 152.45291 116.991884 L 190.89562 116.991884 L 85.202905 233.700225 L 191.874787 350.002316 Z M 299.890419 352.366899 C 284.494585 352.366899 270.728959 349.648149 258.593542 344.20544 C 246.458124 338.710648 236.93729 331.122106 230.025831 321.434606 C 223.119581 311.752313 219.525831 300.543979 219.254997 287.809603 L 251.739374 287.809603 C 252.827916 298.747104 257.312291 307.939813 265.202917 315.398147 C 273.145626 322.851272 284.708127 326.575231 299.890419 326.575231 C 314.364379 326.575231 325.760213 322.960647 334.088338 315.721064 C 342.463339 308.486688 346.656047 299.179396 346.656047 287.809603 C 346.656047 278.887728 344.20813 271.653352 339.307088 266.101269 C 334.411255 260.549185 328.265421 256.335643 320.864379 253.450226 C 313.520628 250.512726 303.614378 247.382517 291.156044 244.064809 C 275.760209 240.038767 263.437292 236.012725 254.187291 231.986683 C 244.989374 227.960641 237.103957 221.674182 230.520623 213.132515 C 223.932081 204.538765 220.640414 193.002305 220.640414 178.528346 C 220.640414 165.799179 223.853956 154.533553 230.275831 144.741886 C 236.74979 134.950218 245.833124 127.382509 257.531041 122.054384 C 269.286251 116.663759 282.723751 113.97105 297.848752 113.97105 C 319.666462 113.97105 337.541463 119.439801 351.468548 130.377301 C 365.40084 141.314802 373.260216 155.788761 375.057091 173.793971 L 341.67688 173.793971 C 340.531047 164.929387 335.827922 157.090845 327.557088 150.288761 C 319.343546 143.491886 308.432086 140.090844 294.827919 140.090844 C 282.150835 140.090844 271.786251 143.382511 263.734167 149.965844 C 255.734166 156.491886 251.739374 165.663762 251.739374 177.471054 C 251.739374 185.95543 254.13 192.89293 258.921667 198.278347 C 263.708125 203.611681 269.609167 207.663765 276.630001 210.439807 C 283.650835 213.215848 293.494585 216.39814 306.17167 219.986682 C 321.572712 224.179391 333.947713 228.340849 343.307089 232.476266 C 352.666464 236.611683 360.692507 242.976267 367.385215 251.575226 C 374.077924 260.116893 377.421674 271.757519 377.421674 286.502312 C 377.421674 297.877312 374.400841 308.564813 368.364382 318.580439 C 362.380007 328.590856 353.484173 336.726273 341.67688 342.981482 C 329.869588 349.236691 315.942504 352.366899 299.890419 352.366899 Z M 299.890419 352.366899 " stroke="#a6763e" stroke-width="18.804037" stroke-opacity="1" stroke-miterlimit="4"/></svg>