<svg xmlns="http://www.w3.org/2000/svg" xmlns:xlink="http://www.w3.org/1999/xlink" width="500" zoomAndPan="magnify" viewBox="0 0 375 374.999991" height="500" preserveAspectRatio="xMidYMid meet" version="1.0"><path stroke-linecap="butt" transform="matrix(0.75, 0, 0, 0.75, 40.1447, 12.427948)" fill="none" stroke-linejoin="miter" d="M 152.129993 350.002343 L 56.15082 243.658586 L 56.15082 350.002343 L 25.70811 350.002343 L 25.70811 116.991911 L 56.15082 116.991911 L 56.15082 224.965876 L 152.45291 116.991911 L 190.89562 116.991911 L 85.202905 233.700252 L 191.874787 350.002343 Z M 299.890419 352.366926 C 284.494585 352.366926 270.728959 349.648176 258.593542 344.205467 C 246.458124 338.710675 236.93729 331.122133 230.025831 321.434632 C 223.119581 311.75234 219.525831 300.544006 219.254997 287.80963 L 251.739374 287.80963 C 252.827916 298.747131 257.312291 307.93984 265.202917 315.398174 C 273.145626 322.851299 284.708127 326.575258 299.890419 326.575258 C 314.364379 326.575258 325.760213 322.960674 334.088338 315.72109 C 342.463339 308.486715 346.656047 299.179423 346.656047 287.80963 C 346.656047 278.887755 344.20813 271.653379 339.307088 266.101295 C 334.411255 260.549212 328.265421 256.33567 320.864379 253.450253 C 313.520628 250.512753 303.614378 247.382544 291.156044 244.064836 C 275.760209 240.038794 263.437292 236.012752 254.187291 231.98671 C 244.989374 227.960668 237.103957 221.674209 230.520623 213.132542 C 223.932081 204.538791 220.640414 193.002332 220.640414 178.528373 C 220.640414 165.799206 223.853956 154.53358 230.275831 144.741913 C 236.74979 134.950245 245.833124 127.382536 257.531041 122.054411 C 269.286251 116.663786 282.723751 113.971077 297.848752 113.971077 C 319.666462 113.971077 337.541463 119.439828 351.468548 130.377328 C 365.40084 141.314829 373.260216 155.788788 375.057091 173.793998 L 341.67688 173.793998 C 340.531047 164.929414 335.827922 157.090872 327.557088 150.288788 C 319.343546 143.491912 308.432086 140.090871 294.827919 140.090871 C 282.150835 140.090871 271.786251 143.382537 263.734167 149.965871 C 255.734166 156.491913 251.739374 165.663789 251.739374 177.471081 C 251.739374 185.955457 254.13 192.892957 258.921667 198.278374 C 263.708125 203.611708 269.609167 207.663792 276.630001 210.439833 C 283.650835 213.215875 293.494585 216.398167 306.17167 219.986709 C 321.572712 224.179418 333.947713 228.340876 343.307089 232.476293 C 352.666464 236.61171 360.692507 242.976294 367.385215 251.575253 C 374.077924 260.11692 377.421674 271.757546 377.421674 286.502338 C 377.421674 297.877339 374.400841 308.56484 368.364382 318.580466 C 362.380007 328.590883 353.484173 336.7263 341.67688 342.981509 C 329.869588 349.236718 315.942504 352.366926 299.890419 352.366926 Z M 299.890419 352.366926 " stroke="#faf3e0" stroke-width="18.804037" stroke-opacity="1" stroke-miterlimit="4"/></svg>