<svg xmlns="http://www.w3.org/2000/svg" xmlns:xlink="http://www.w3.org/1999/xlink" width="500" zoomAndPan="magnify" viewBox="0 0 375 374.999991" height="500" preserveAspectRatio="xMidYMid meet" version="1.0"><path stroke-linecap="butt" transform="matrix(0.75, 0, 0, 0.75, 40.1447, 12.427909)" fill="none" stroke-linejoin="miter" d="M 152.129993 350.002394 L 56.15082 243.658637 L 56.15082 350.002394 L 25.70811 350.002394 L 25.70811 116.991962 L 56.15082 116.991962 L 56.15082 224.965927 L 152.45291 116.991962 L 190.89562 116.991962 L 85.202905 233.700303 L 191.874787 350.002394 Z M 299.890419 352.366977 C 284.494585 352.366977 270.728959 349.648227 258.593542 344.205518 C 246.458124 338.710726 236.93729 331.122184 230.025831 321.434684 C 223.119581 311.752391 219.525831 300.544057 219.254997 287.809681 L 251.739374 287.809681 C 252.827916 298.747182 257.312291 307.939891 265.202917 315.398225 C 273.145626 322.85135 284.708127 326.575309 299.890419 326.575309 C 314.364379 326.575309 325.760213 322.960725 334.088338 315.721142 C 342.463339 308.486766 346.656047 299.179474 346.656047 287.809681 C 346.656047 278.887806 344.20813 271.648222 339.307088 266.101347 C 334.411255 260.549263 328.265421 256.335721 320.864379 253.450304 C 313.520628 250.512804 303.614378 247.382595 291.156044 244.064887 C 275.760209 240.038845 263.437292 236.012803 254.187291 231.986761 C 244.989374 227.960719 237.103957 221.67426 230.520623 213.132593 C 223.932081 204.538843 220.640414 193.002384 220.640414 178.528424 C 220.640414 165.799257 223.853956 154.533631 230.275831 144.741964 C 236.74979 134.950296 245.833124 127.382588 257.531041 122.054462 C 269.286251 116.663837 282.723751 113.971128 297.848752 113.971128 C 319.666462 113.971128 337.541463 119.439879 351.468548 130.377379 C 365.40084 141.31488 373.260216 155.788839 375.057091 173.794049 L 341.67688 173.794049 C 340.531047 164.929465 335.827922 157.090923 327.557088 150.288839 C 319.343546 143.491964 308.432086 140.090922 294.827919 140.090922 C 282.150835 140.090922 271.786251 143.382589 263.734167 149.965922 C 255.734166 156.491964 251.739374 165.66384 251.739374 177.465924 C 251.739374 185.955508 254.13 192.893009 258.921667 198.278426 C 263.708125 203.611759 269.609167 207.663843 276.630001 210.439885 C 283.650835 213.215927 293.494585 216.398218 306.17167 219.98676 C 321.572712 224.179469 333.947713 228.340928 343.307089 232.476344 C 352.666464 236.611761 360.692507 242.976345 367.385215 251.575304 C 374.077924 260.116971 377.421674 271.757597 377.421674 286.50239 C 377.421674 297.87739 374.400841 308.564891 368.364382 318.580517 C 362.380007 328.590934 353.484173 336.726351 341.67688 342.98156 C 329.869588 349.236769 315.942504 352.366977 299.890419 352.366977 Z M 299.890419 352.366977 " stroke="#b56d6f" stroke-width="18.804037" stroke-opacity="1" stroke-miterlimit="4"/></svg>